# Blender v2.93.5 OBJ File: 'axe.blend'
# www.blender.org
mtllib axe.mtl
o Plane
v -0.266328 0.515598 -0.444035
v 0.548320 -0.115930 0.524222
v -0.244136 -0.390069 -0.020627
v 0.129901 0.652668 -0.171611
v 0.537224 0.336904 0.312518
v -0.629269 -0.979973 -0.081347
v 0.140996 0.199834 0.040093
v 0.542772 0.110487 0.418370
v 0.350206 -0.184465 0.388010
v -0.442250 -0.458604 -0.156839
v -0.249684 -0.163652 -0.126479
v -0.068214 0.584133 -0.307823
v -0.046022 -0.321534 0.115585
v -0.238588 -0.616486 0.085225
v -0.260780 0.289181 -0.338183
v -0.431155 -0.911438 0.054865
v -0.634817 -0.753556 -0.187199
v 0.339110 0.268369 0.176306
v -0.057118 0.131299 -0.096119
v 0.146544 -0.026583 0.145946
v 0.135448 0.426251 -0.065759
v -0.062666 0.357716 -0.201971
v -0.051570 -0.095118 0.009733
v 0.344658 0.041952 0.282158
v -0.458894 0.220646 -0.474395
v -0.436703 -0.685021 -0.050987
v 0.355754 -0.410881 0.493862
v 0.333563 0.494786 0.070454
v -0.365385 0.481330 -0.512141
v 0.545546 -0.002721 0.471296
v 0.449263 -0.150197 0.456116
v -0.343193 -0.424337 -0.088733
v -0.246910 -0.276861 -0.073553
v 0.030843 0.618400 -0.239717
v -0.258006 0.175973 -0.285257
v -0.728326 -1.014240 -0.149453
v -0.632043 -0.866764 -0.134273
v 0.485127 0.612927 0.019990
v 0.438168 0.302636 0.244412
v 0.041939 0.165567 -0.028013
v 0.507318 -0.292740 0.443398
v 0.138222 0.313042 -0.012833
v -0.285139 -0.566880 -0.101451
v -0.307330 0.338788 -0.524859
v -0.670271 -1.156783 -0.162171
v 0.496222 0.160093 0.231694
v 0.099994 0.023024 -0.040730
v 0.088898 0.475857 -0.252434
v 0.094446 0.249440 -0.146582
v 0.539998 0.223695 0.365444
v 0.251149 -0.218732 0.319904
v -0.103668 0.180906 -0.282795
v -0.109216 0.407322 -0.388647
v 0.105542 -0.203393 0.065122
v -0.092572 -0.271928 -0.071090
v -0.098120 -0.045511 -0.176942
v -0.167271 0.549865 -0.375929
v 0.551094 -0.229138 0.577148
v 0.501770 -0.066323 0.337546
v 0.303656 -0.134858 0.201334
v 0.298108 0.091559 0.095482
v -0.087024 -0.498345 0.034762
v -0.145079 -0.355802 0.047479
v -0.675819 -0.930366 -0.268023
v -0.241362 -0.503278 0.032299
v -0.263554 0.402390 -0.391109
v -0.472157 -1.088248 -0.025959
v -0.290686 -0.340463 -0.207303
v -0.301782 0.112371 -0.419007
v -0.279591 -0.793296 0.004401
v -0.530212 -0.945705 -0.013241
v -0.477705 -0.861831 -0.131811
v -0.626495 -1.093181 -0.028421
v -0.483253 -0.635414 -0.237663
v 0.309204 -0.361275 0.307186
v 0.490674 0.386510 0.125842
v 0.292560 0.317975 -0.010370
v 0.287012 0.544392 -0.116222
v 0.240053 0.234102 0.108200
v 0.487900 0.499719 0.072916
v 0.143770 0.086626 0.093020
v 0.132674 0.539459 -0.118685
v 0.036391 0.391983 -0.133865
v -0.161723 0.323449 -0.270077
v -0.059892 0.244508 -0.149045
v -0.065440 0.470924 -0.254897
v 0.047487 -0.060850 0.077839
v -0.150627 -0.129385 -0.058373
v -0.048796 -0.208326 0.062659
v -0.054344 0.018091 -0.043193
v 0.443715 0.076220 0.350264
v 0.245601 0.007685 0.214052
v 0.347432 -0.071256 0.335084
v 0.341884 0.155161 0.229232
v 0.510092 -0.405949 0.496324
v -0.004611 0.215173 -0.214688
v -0.571214 -1.122516 -0.094065
v 0.606375 -0.258473 0.511504
v -0.001837 0.101965 -0.161762
v -0.579536 -0.782890 -0.252843
v -0.202725 0.146638 -0.350901
v -0.194403 -0.192987 -0.192123
v -0.386970 -0.487939 -0.222483
v 0.386069 0.578660 -0.048116
v 0.391617 0.352243 0.057736
v 0.388843 0.465451 0.004810
v 0.289786 0.431184 -0.063296
v 0.411035 -0.440216 0.428218
v 0.408261 -0.327008 0.375292
v -0.384196 -0.601147 -0.169557
v -0.378648 -0.827564 -0.063705
v -0.381422 -0.714355 -0.116631
v -0.480479 -0.748623 -0.184737
v -0.282365 -0.680088 -0.048525
v -0.403613 0.191312 -0.540039
v -0.406387 0.304520 -0.592965
v -0.304556 0.225579 -0.471933
v 0.397165 0.125826 0.163588
v 0.402713 -0.100591 0.269440
v 0.399939 0.012618 0.216514
v 0.300882 -0.021650 0.148408
v 0.498996 0.046885 0.284620
v 0.000937 -0.011244 -0.108836
v 0.006485 -0.237661 -0.002984
v 0.003711 -0.124452 -0.055910
v -0.095346 -0.158720 -0.124016
v 0.102768 -0.090185 0.012196
v -0.010159 0.441590 -0.320541
v -0.007385 0.328381 -0.267614
v -0.106442 0.294114 -0.335721
v -0.359837 0.254914 -0.406289
v 0.091672 0.362649 -0.199508
v 0.190729 0.396916 -0.131402
v -0.461668 0.333855 -0.527321
v -0.337646 -0.650753 0.017119
v -0.535760 -0.719288 -0.119093
v -0.433929 -0.798229 0.001939
v -0.439477 -0.571813 -0.103913
v 0.454811 -0.376614 0.561968
v 0.187955 0.510125 -0.184328
v 0.201825 -0.055917 0.080302
v 0.352980 -0.297673 0.440936
v 0.432620 0.529053 0.138560
v 0.234505 0.460518 0.002348
v 0.336336 0.381577 0.123380
v 0.330789 0.607994 0.017528
v 0.231732 0.573727 -0.050579
v 0.237279 0.347310 0.055274
v 0.435394 0.415845 0.191486
v 0.253923 -0.331940 0.372830
v 0.199051 0.057291 0.027376
v 0.394391 0.239034 0.110662
v -0.538534 -0.606080 -0.172019
v -0.532986 -0.832497 -0.066167
v -0.334872 -0.763962 0.070045
v 0.295334 0.204767 0.042556
v -0.375874 -0.940772 -0.010779
v -0.357063 0.141705 -0.353363
v -0.474931 -0.975040 -0.078885
v -0.205499 0.259847 -0.403827
v -0.345967 -0.311128 -0.141659
v -0.208273 0.373055 -0.456753
v -0.183308 -0.645821 0.019581
v -0.186082 -0.532612 -0.033345
v 0.009259 -0.350869 0.049942
v -0.089798 -0.385136 -0.018164
v -0.012933 0.554798 -0.373467
v -0.527438 -1.058914 0.039685
v -0.111990 0.520531 -0.441573
v 0.405487 -0.213799 0.322366
v 0.306430 -0.248067 0.254260
v 0.598053 0.081152 0.352726
v 0.595279 0.194361 0.299800
v 0.193503 0.283708 -0.078476
v 0.196277 0.170500 -0.025550
v -0.731100 -0.901032 -0.202379
v 0.097220 0.136232 -0.093656
v 0.592505 0.307569 0.246874
v 0.493448 0.273302 0.178768
v -0.576762 -0.896099 -0.199917
v -0.573988 -1.009307 -0.146991
v -0.673045 -1.043575 -0.215097
v -0.142305 -0.469010 0.100405
v 0.185181 0.623333 -0.237254
v 0.086124 0.589066 -0.305360
v 0.242827 0.120893 0.161126
v 0.248375 -0.105524 0.266978
v 0.446489 -0.036989 0.403190
v -0.153401 -0.016177 -0.111299
v -0.147853 -0.242593 -0.005447
v 0.050261 -0.174059 0.130765
v -0.164497 0.436657 -0.323003
v -0.158949 0.210240 -0.217151
v 0.039165 0.278775 -0.080939
v 0.033617 0.505192 -0.186791
v 0.044713 0.052358 0.024913
v 0.440941 0.189428 0.297338
v -0.191629 -0.306195 -0.139197
v -0.188855 -0.419404 -0.086271
v -0.287913 -0.453671 -0.154377
v 0.504544 -0.179532 0.390472
v -0.725552 -1.127448 -0.096527
v 0.603601 -0.145264 0.458578
v 0.600827 -0.032056 0.405652
v -0.211047 0.486263 -0.509679
v -0.310104 0.451996 -0.577785
v -0.362611 0.368122 -0.459215
v -0.340419 -0.537545 -0.035807
v 0.452037 -0.263406 0.509042
v 0.429846 0.642262 0.085634
vt 0.437500 0.937500
vt 0.437500 1.000000
vt 0.500000 1.000000
vt 0.500000 0.937500
vt 0.437500 0.437500
vt 0.437500 0.500000
vt 0.500000 0.500000
vt 0.500000 0.437500
vt 0.937500 0.437500
vt 0.937500 0.500000
vt 1.000000 0.500000
vt 1.000000 0.437500
vt 0.187500 0.187500
vt 0.187500 0.250000
vt 0.250000 0.250000
vt 0.250000 0.187500
vt 0.687500 0.937500
vt 0.687500 1.000000
vt 0.750000 1.000000
vt 0.750000 0.937500
vt 0.687500 0.687500
vt 0.687500 0.750000
vt 0.750000 0.750000
vt 0.750000 0.687500
vt 0.937500 0.687500
vt 0.937500 0.750000
vt 1.000000 0.750000
vt 1.000000 0.687500
vt 0.812500 0.687500
vt 0.812500 0.750000
vt 0.875000 0.750000
vt 0.875000 0.687500
vt 0.812500 0.562500
vt 0.812500 0.625000
vt 0.875000 0.625000
vt 0.875000 0.562500
vt 0.937500 0.562500
vt 0.937500 0.625000
vt 1.000000 0.625000
vt 1.000000 0.562500
vt 0.562500 0.562500
vt 0.562500 0.625000
vt 0.625000 0.625000
vt 0.625000 0.562500
vt 0.562500 0.937500
vt 0.562500 1.000000
vt 0.625000 1.000000
vt 0.625000 0.937500
vt 0.562500 0.812500
vt 0.562500 0.875000
vt 0.625000 0.875000
vt 0.625000 0.812500
vt 0.687500 0.812500
vt 0.687500 0.875000
vt 0.750000 0.875000
vt 0.750000 0.812500
vt 0.812500 0.437500
vt 0.812500 0.500000
vt 0.875000 0.500000
vt 0.875000 0.437500
vt 0.312500 0.312500
vt 0.312500 0.375000
vt 0.375000 0.375000
vt 0.375000 0.312500
vt 0.437500 0.812500
vt 0.437500 0.875000
vt 0.500000 0.875000
vt 0.500000 0.812500
vt 0.812500 0.812500
vt 0.812500 0.875000
vt 0.875000 0.875000
vt 0.875000 0.812500
vt 0.937500 0.875000
vt 0.937500 0.812500
vt 0.812500 0.937500
vt 0.875000 0.937500
vt 0.875000 0.375000
vt 0.937500 0.375000
vt 0.937500 0.375000
vt 0.875000 0.375000
vt 0.937500 0.875000
vt 0.937500 0.812500
vt 0.437500 0.312500
vt 0.437500 0.312500
vt 0.375000 0.312500
vt 0.687500 0.750000
vt 0.687500 0.812500
vt 0.625000 0.750000
vt 0.625000 0.750000
vt 0.562500 0.500000
vt 0.625000 0.500000
vt 0.625000 0.500000
vt 0.562500 0.500000
vt 0.750000 0.625000
vt 0.750000 0.687500
vt 0.750000 0.625000
vt 0.437500 0.375000
vt 0.437500 0.375000
vt 0.500000 0.375000
vt 0.500000 0.437500
vt 0.500000 0.375000
vt 0.625000 0.687500
vt 0.562500 0.687500
vt 0.562500 0.687500
vt 0.625000 0.687500
vt 0.687500 0.625000
vt 0.687500 0.625000
vt 0.250000 0.312500
vt 0.250000 0.375000
vt 0.312500 0.250000
vt 0.375000 0.250000
vt 0.625000 1.000000
vt 0.687500 1.000000
vt 0.875000 0.437500
vt 0.812500 0.437500
vt 0.312500 0.437500
vt 0.375000 0.437500
vt 0.562500 1.000000
vt 0.562500 0.625000
vt 0.625000 0.562500
vt 0.375000 0.937500
vt 0.375000 0.875000
vt 0.375000 0.875000
vt 0.375000 0.937500
vt 0.937500 0.937500
vt 0.875000 0.937500
vt 0.937500 0.937500
vt 0.375000 0.250000
vt 0.312500 0.250000
vt 0.812500 0.500000
vt 0.500000 0.562500
vt 0.437500 0.562500
vt 0.437500 0.562500
vt 0.500000 0.562500
vt 0.437500 1.000000
vt 0.500000 1.000000
vt 0.250000 0.312500
vt 0.250000 0.375000
vt 0.500000 0.812500
vt 0.437500 0.812500
vt 1.000000 0.562500
vt 1.000000 0.500000
vt 0.562500 0.437500
vt 1.000000 0.750000
vt 1.000000 0.687500
vt 0.437500 0.937500
vt 0.437500 0.500000
vt 0.937500 0.750000
vt 0.250000 0.187500
vt 0.187500 0.187500
vt 0.312500 0.187500
vt 0.312500 0.187500
vt 0.687500 0.562500
vt 0.687500 0.562500
vt 0.437500 0.875000
vt 0.812500 0.937500
vt 0.187500 0.250000
vt 0.750000 1.000000
vt 0.750000 0.937500
vt 0.375000 0.500000
vt 0.375000 0.500000
vt 0.312500 0.437500
vt 0.375000 0.437500
vt 0.187500 0.312500
vt 0.187500 0.312500
vt 0.500000 0.625000
vt 0.500000 0.625000
vt 1.000000 0.437500
vt 0.937500 0.437500
vt 0.312500 0.375000
vt 0.812500 0.687500
vt 0.625000 0.812500
vt 0.562500 0.812500
vt 0.562500 0.437500
vt 0.812500 0.625000
vt 1.000000 0.625000
vt 0.812500 0.562500
vt 0.809606 0.807349
vt 0.877793 0.807349
vt 0.877793 0.875536
vt 0.809606 0.875536
vt 0.332292 0.807349
vt 0.400480 0.807349
vt 0.400480 0.875536
vt 0.332292 0.875536
vt 0.264105 0.807349
vt 0.264105 0.875536
vt 0.332292 0.261848
vt 0.400480 0.261848
vt 0.400480 0.330035
vt 0.332292 0.330035
vt 0.264105 0.261848
vt 0.264105 0.330035
vt 0.332292 0.398223
vt 0.264105 0.398223
vt 0.809606 0.261848
vt 0.877793 0.261848
vt 0.877793 0.330035
vt 0.809606 0.330035
vt 0.877793 0.398223
vt 0.809606 0.398223
vt 0.605043 0.807349
vt 0.673230 0.807349
vt 0.673230 0.875536
vt 0.605043 0.875536
vt 0.536855 0.807349
vt 0.536855 0.875536
vt 0.605043 0.943724
vt 0.536855 0.943724
vt 0.605043 0.534598
vt 0.673230 0.534598
vt 0.673230 0.602786
vt 0.605043 0.602786
vt 0.536855 0.534598
vt 0.536855 0.602786
vt 0.605043 0.670973
vt 0.536855 0.670973
vt 0.877793 0.534598
vt 0.945981 0.534598
vt 0.945981 0.602786
vt 0.877793 0.602786
vt 0.809606 0.534598
vt 0.809606 0.602786
vt 0.877793 0.670973
vt 0.809606 0.670973
vt 0.741418 0.534598
vt 0.741418 0.602786
vt 0.741418 0.670973
vt 0.673230 0.670973
vt 0.741418 0.398223
vt 0.809606 0.466410
vt 0.741418 0.466410
vt 0.945981 0.398223
vt 0.945981 0.466410
vt 0.877793 0.466410
vt 0.468668 0.534598
vt 0.468668 0.602786
vt 0.468668 0.398223
vt 0.536855 0.398223
vt 0.536855 0.466410
vt 0.468668 0.466410
vt 0.400480 0.398223
vt 0.400480 0.466410
vt 0.400480 0.534598
vt 0.605043 0.466410
vt 0.468668 0.807349
vt 0.468668 0.875536
vt 0.468668 0.943724
vt 0.400480 0.943724
vt 0.400480 0.739161
vt 0.468668 0.739161
vt 0.673230 0.739161
vt 0.605043 0.739161
vt 0.536855 0.739161
vt 0.332292 0.466410
vt 0.127730 0.057285
vt 0.195917 0.057285
vt 0.195917 0.125472
vt 0.127730 0.125472
vt 0.059542 0.125472
vt 0.127730 0.193660
vt 0.059542 0.193660
vt 0.468668 0.330035
vt 0.195917 0.261848
vt 0.195917 0.330035
vt 0.264105 0.125472
vt 0.264105 0.193660
vt 0.195917 0.193660
vt 0.127730 0.261848
vt 0.332292 0.193660
vt 0.741418 0.807349
vt 0.741418 0.875536
vt 0.809606 0.739161
vt 0.741418 0.739161
vt 0.877793 0.739161
vt 0.332292 0.739161
vt 0.741418 0.330035
vt 0.945981 0.670973
vt 0.673230 0.943724
vt 0.059542 0.057285
vt 0.945981 0.330035
vt 0.332292 0.943724
vn -0.6095 0.3234 0.7238
vn -0.7925 -0.2741 -0.5448
vn -0.0222 0.9057 -0.4234
vn 0.0222 -0.9057 0.4234
vn 0.7925 0.2741 0.5448
vn 0.6095 -0.3234 -0.7238
usemtl Material.001
s off
f 209/1/1 58/2/1 2/3/1 31/4/1
f 208/5/1 65/6/1 3/7/1 32/8/1
f 207/9/1 66/10/1 1/11/1 29/12/1
f 202/13/1 73/14/1 6/15/1 36/16/1
f 197/17/1 50/18/1 5/19/1 39/20/1
f 196/21/1 81/22/1 7/23/1 40/24/1
f 195/25/1 82/26/1 4/27/1 34/28/1
f 194/29/1 42/30/1 21/31/1 83/32/1
f 193/33/1 85/34/1 22/35/1 84/36/1
f 192/37/1 86/38/1 12/39/1 57/40/1
f 190/41/1 89/42/1 23/43/1 88/44/1
f 188/45/1 30/46/1 8/47/1 91/48/1
f 187/49/1 93/50/1 24/51/1 92/52/1
f 186/53/1 94/54/1 18/55/1 79/56/1
f 158/57/1 35/58/1 15/59/1 131/60/1
f 154/61/1 137/62/1 26/63/1 136/64/1
f 150/65/1 142/66/1 9/67/1 51/68/1
f 148/69/1 145/70/1 28/71/1 144/72/1
f 144/72/1 28/71/1 146/73/1 147/74/1
f 21/31/1 144/72/1 147/74/1 82/26/1
f 79/56/1 18/55/1 145/70/1 148/69/1
f 7/23/1 79/56/1 148/69/1 42/30/1
f 42/30/1 148/69/1 144/72/1 21/31/1
f 18/55/1 39/20/1 149/75/1 145/70/1
f 145/70/1 149/75/1 143/76/1 28/71/1
f 25/77/2 134/78/2 116/79/2 115/80/2
f 147/74/3 146/73/3 104/81/3 78/82/3
f 136/64/2 153/83/2 74/84/2 113/85/2
f 186/53/4 81/22/4 151/86/4 61/87/4
f 81/22/5 20/88/5 141/89/5 151/86/5
f 33/90/2 11/91/2 102/92/2 198/93/2
f 19/94/3 40/24/3 177/95/3 99/96/3
f 153/83/3 138/97/3 110/98/3 74/84/3
f 10/99/3 32/8/3 200/100/3 103/101/3
f 136/64/1 26/63/1 138/97/1 153/83/1
f 87/102/5 191/103/5 54/104/5 127/105/5
f 90/106/2 19/94/2 99/96/2 123/107/2
f 71/108/1 16/109/1 137/62/1 154/61/1
f 6/15/1 71/108/1 154/61/1 37/110/1
f 37/110/1 154/61/1 136/64/1 17/111/1
f 50/18/5 8/47/5 172/112/5 173/113/5
f 158/57/2 131/60/2 117/114/2 69/115/2
f 137/62/1 155/116/1 135/117/1 26/63/1
f 8/47/5 30/46/5 204/118/5 172/112/5
f 191/103/4 89/42/4 124/119/4 54/104/4
f 11/91/3 88/44/3 126/120/3 102/92/3
f 139/121/4 27/122/4 108/123/4 95/124/4
f 210/125/5 143/76/5 80/126/5 38/127/5
f 37/110/2 17/111/2 100/128/2 180/129/2
f 35/58/4 158/57/4 69/115/4 101/130/4
f 138/97/2 10/99/2 103/101/2 110/98/2
f 146/73/3 210/125/3 38/127/3 104/81/3
f 63/131/5 183/132/5 62/133/5 166/134/5
f 2/3/5 58/2/5 98/135/5 203/136/5
f 16/109/4 71/108/4 159/137/4 157/138/4
f 17/111/3 136/64/3 113/85/3 100/128/3
f 150/65/2 51/68/2 171/139/2 75/140/2
f 1/11/3 57/40/3 169/141/3 205/142/3
f 32/8/1 3/7/1 33/90/1 161/143/1
f 34/28/3 4/27/3 184/144/3 185/145/3
f 209/1/5 139/121/5 95/124/5 41/146/5
f 183/132/4 65/6/4 164/147/4 62/133/4
f 4/27/5 82/26/5 140/148/5 184/144/5
f 202/13/2 36/16/2 182/149/2 45/150/2
f 36/16/2 176/151/2 64/152/2 182/149/2
f 88/44/2 189/153/2 56/154/2 126/120/2
f 58/2/4 209/1/4 41/146/4 98/135/4
f 142/66/4 150/65/4 75/140/4 109/155/4
f 176/151/3 37/110/3 180/129/3 64/152/3
f 143/76/5 149/75/5 76/156/5 80/126/5
f 189/153/3 90/106/3 123/107/3 56/154/3
f 73/14/4 202/13/4 45/150/4 97/157/4
f 131/60/4 25/77/4 115/80/4 117/114/4
f 39/20/3 5/19/3 178/158/3 179/159/3
f 149/75/5 39/20/5 179/159/5 76/156/5
f 65/6/5 14/160/5 163/161/5 164/147/5
f 135/117/5 155/116/5 70/162/5 114/163/5
f 71/108/5 168/164/5 67/165/5 159/137/5
f 27/122/2 142/66/2 109/155/2 108/123/2
f 13/166/4 63/131/4 166/134/4 165/167/4
f 5/19/5 50/18/5 173/113/5 178/158/5
f 73/14/1 168/164/1 71/108/1 6/15/1
f 89/42/5 13/166/5 165/167/5 124/119/5
f 30/46/5 2/3/5 203/136/5 204/118/5
f 207/9/2 29/12/2 206/168/2 44/169/2
f 155/116/4 137/62/4 111/170/4 70/162/4
f 40/24/2 194/29/2 49/171/2 177/95/2
f 168/164/4 73/14/4 97/157/4 67/165/4
f 29/12/3 1/11/3 205/142/3 206/168/3
f 187/49/2 92/52/2 121/172/2 60/173/2
f 32/8/2 161/143/2 68/174/2 200/100/2
f 20/88/4 87/102/4 127/105/4 141/89/4
f 194/29/4 85/34/4 96/175/4 49/171/4
f 134/78/3 207/9/3 44/169/3 116/79/3
f 51/68/2 187/49/2 60/173/2 171/139/2
f 161/143/3 33/90/3 198/93/3 68/174/3
f 137/62/5 16/109/5 157/138/5 111/170/5
f 57/40/3 12/39/3 167/176/3 169/141/3
f 193/33/4 35/58/4 101/130/4 52/177/4
f 14/160/4 135/117/4 114/163/4 163/161/4
f 82/26/3 147/74/3 78/82/3 140/148/3
f 12/39/3 34/28/3 185/145/3 167/176/3
f 92/52/2 186/53/2 61/87/2 121/172/2
f 36/16/1 6/15/1 37/110/1 176/151/1
f 85/34/4 193/33/4 52/177/4 96/175/4
f 106/178/6 104/179/6 38/180/6 80/181/6
f 109/182/6 170/183/6 201/184/6 41/185/6
f 108/186/6 109/182/6 41/185/6 95/187/6
f 110/188/6 103/189/6 200/190/6 43/191/6
f 112/192/6 110/188/6 43/191/6 114/193/6
f 114/193/6 43/191/6 164/194/6 163/195/6
f 115/196/6 116/197/6 44/198/6 117/199/6
f 117/199/6 44/198/6 162/200/6 160/201/6
f 118/202/6 152/203/6 179/204/6 46/205/6
f 120/206/6 118/202/6 46/205/6 122/207/6
f 122/207/6 46/205/6 173/208/6 172/209/6
f 123/210/6 99/211/6 177/212/6 47/213/6
f 125/214/6 123/210/6 47/213/6 127/215/6
f 127/215/6 47/213/6 151/216/6 141/217/6
f 128/218/6 167/219/6 185/220/6 48/221/6
f 129/222/6 128/218/6 48/221/6 132/223/6
f 132/223/6 48/221/6 140/224/6 133/225/6
f 96/226/6 129/222/6 132/223/6 49/227/6
f 177/212/6 49/227/6 174/228/6 175/229/6
f 101/230/6 160/201/6 130/231/6 52/232/6
f 162/200/6 205/233/6 169/234/6 53/235/6
f 65/6/1 183/132/1 63/131/1 3/7/1
f 160/201/6 162/200/6 53/235/6 130/231/6
f 130/231/6 53/235/6 128/218/6 129/222/6
f 124/236/6 125/214/6 127/215/6 54/237/6
f 198/238/6 102/239/6 126/240/6 55/241/6
f 199/242/6 198/238/6 55/241/6 166/243/6
f 166/243/6 55/241/6 124/236/6 165/244/6
f 92/52/1 24/51/1 94/54/1 186/53/1
f 126/240/6 56/245/6 123/210/6 125/214/6
f 81/22/1 186/53/1 79/56/1 7/23/1
f 51/68/1 9/67/1 93/50/1 187/49/1
f 119/246/6 120/206/6 122/207/6 59/247/6
f 170/183/6 119/246/6 59/247/6 201/184/6
f 31/4/1 2/3/1 30/46/1 188/45/1
f 9/67/1 31/4/1 188/45/1 93/50/1
f 93/50/1 188/45/1 91/48/1 24/51/1
f 88/44/1 23/43/1 90/106/1 189/153/1
f 201/184/6 59/247/6 204/248/6 203/249/6
f 171/250/6 60/251/6 119/246/6 170/183/6
f 63/131/1 13/166/1 89/42/1 190/41/1
f 3/7/1 63/131/1 190/41/1 33/90/1
f 33/90/1 190/41/1 88/44/1 11/91/1
f 151/216/6 175/229/6 156/252/6 61/253/6
f 121/254/6 61/253/6 118/202/6 120/206/6
f 89/42/1 191/103/1 87/102/1 23/43/1
f 84/36/1 22/35/1 86/38/1 192/37/1
f 15/59/1 84/36/1 192/37/1 66/10/1
f 66/10/1 192/37/1 57/40/1 1/11/1
f 164/194/6 199/242/6 166/243/6 62/255/6
f 182/256/6 64/257/6 180/258/6 181/259/6
f 35/58/1 193/33/1 84/36/1 15/59/1
f 40/24/1 7/23/1 42/30/1 194/29/1
f 97/260/6 181/259/6 159/261/6 67/262/6
f 85/34/1 194/29/1 83/32/1 22/35/1
f 83/32/1 21/31/1 82/26/1 195/25/1
f 22/35/1 83/32/1 195/25/1 86/38/1
f 86/38/1 195/25/1 34/28/1 12/39/1
f 87/102/1 20/88/1 81/22/1 196/21/1
f 23/43/1 87/102/1 196/21/1 90/106/1
f 90/106/1 196/21/1 40/24/1 19/94/1
f 91/48/1 8/47/1 50/18/1 197/17/1
f 24/51/1 91/48/1 197/17/1 94/54/1
f 94/54/1 197/17/1 39/20/1 18/55/1
f 200/190/6 68/263/6 198/238/6 199/242/6
f 111/264/6 112/192/6 114/193/6 70/265/6
f 180/258/6 100/266/6 113/267/6 72/268/6
f 181/259/6 180/258/6 72/268/6 159/261/6
f 159/261/6 72/268/6 111/264/6 157/269/6
f 113/267/6 74/270/6 110/188/6 112/192/6
f 105/271/6 106/178/6 80/181/6 76/272/6
f 152/203/6 105/271/6 76/272/6 179/204/6
f 174/228/6 133/225/6 107/273/6 77/274/6
f 175/229/6 174/228/6 77/274/6 156/252/6
f 156/252/6 77/274/6 105/271/6 152/203/6
f 133/225/6 140/224/6 78/275/6 107/273/6
f 107/273/6 78/275/6 104/179/6 106/178/6
f 77/274/6 107/273/6 106/178/6 105/271/6
f 75/276/6 171/250/6 170/183/6 109/182/6
f 72/268/6 113/267/6 112/192/6 111/264/6
f 69/277/6 117/199/6 160/201/6 101/230/6
f 61/253/6 156/252/6 152/203/6 118/202/6
f 60/251/6 121/254/6 120/206/6 119/246/6
f 59/247/6 122/207/6 172/209/6 204/248/6
f 55/241/6 126/240/6 125/214/6 124/236/6
f 53/235/6 169/234/6 167/219/6 128/218/6
f 52/232/6 130/231/6 129/222/6 96/226/6
f 49/227/6 132/223/6 133/225/6 174/228/6
f 48/221/6 185/220/6 184/278/6 140/224/6
f 47/213/6 177/212/6 175/229/6 151/216/6
f 46/205/6 179/204/6 178/279/6 173/208/6
f 131/60/1 15/59/1 66/10/1 207/9/1
f 25/77/1 131/60/1 207/9/1 134/78/1
f 45/280/6 182/256/6 181/259/6 97/260/6
f 135/117/1 14/160/1 65/6/1 208/5/1
f 26/63/1 135/117/1 208/5/1 138/97/1
f 138/97/1 208/5/1 32/8/1 10/99/1
f 44/198/6 206/281/6 205/233/6 162/200/6
f 27/122/1 139/121/1 209/1/1 142/66/1
f 142/66/1 209/1/1 31/4/1 9/67/1
f 43/191/6 200/190/6 199/242/6 164/194/6
f 28/71/1 143/76/1 210/125/1 146/73/1
f 41/185/6 201/184/6 203/249/6 98/282/6
