# Blender v2.93.5 OBJ File: 'flower.blend'
# www.blender.org
mtllib flower.mtl
o Plane
v 0.244776 0.154400 0.007706
v 0.244776 0.404399 0.008295
v -0.005224 -0.345599 0.006529
v -0.255224 -0.095599 0.007117
v 0.494776 -0.595598 0.005940
v -0.005224 -0.595598 0.005940
v -0.005224 0.404399 0.008295
v 0.244776 -0.845597 0.005351
v 0.244776 -0.595598 0.005940
v -0.005224 -0.845597 0.005351
v -0.255224 -0.595598 0.005940
v 0.119776 -0.220599 0.006823
v -0.255224 0.404399 0.008295
v -0.130224 0.029400 0.007412
v -0.005224 -0.095599 0.007117
v 0.369776 0.154400 0.007706
v 0.119776 -0.720598 0.005646
v -0.130224 0.404399 0.008295
v -0.255224 0.279400 0.008000
v -0.130224 -0.595598 0.005940
v -0.130224 -0.845597 0.005351
v -0.255224 -0.720598 0.005646
v -0.005224 -0.720598 0.005646
v 0.369776 -0.595598 0.005940
v 0.244776 -0.720598 0.005646
v 0.119776 -0.095599 0.007117
v 0.244776 0.029400 0.007412
v -0.255224 0.029400 0.007412
v 0.119776 -0.595598 0.005940
v -0.380224 0.279400 0.008000
v 0.244776 0.529399 0.008589
v -0.130224 -0.470598 0.006234
v 0.369776 -0.470598 0.006234
v -0.380224 -0.595598 0.005940
v -0.255224 -0.470598 0.006234
v 0.244776 -0.470598 0.006234
v 0.494776 -0.470598 0.006234
v -0.005224 -0.470598 0.006234
v -0.005224 0.529399 0.008589
v -0.380224 0.154400 0.007706
v -0.380224 -0.470598 0.006234
v 0.119776 -0.845597 0.005351
v -0.005224 0.029400 0.007412
v 0.119776 -0.345599 0.006529
v 0.119776 0.529399 0.008589
v 0.119776 -0.470598 0.006234
v -0.380224 0.029400 0.007412
v -0.130224 -0.095599 0.007117
v -0.005224 -0.220599 0.006823
v 0.119776 0.029400 0.007412
v 0.369776 0.404399 0.008295
v -0.130224 -0.720598 0.005646
v 0.369776 0.279400 0.008000
v 0.369776 0.154228 0.080628
v 0.244776 0.154228 0.080628
v 0.119776 0.154228 0.080628
v 0.244776 0.029229 0.080333
v 0.244776 0.279228 0.080922
v 0.369776 0.404228 0.081216
v 0.244776 0.404228 0.081216
v 0.119776 0.404228 0.081216
v 0.244776 0.529227 0.081511
v -0.130224 -0.095771 0.080039
v -0.255224 -0.095771 0.080039
v -0.255224 0.029229 0.080333
v -0.130224 0.029229 0.080333
v -0.005224 0.404228 0.081216
v -0.130224 0.404228 0.081216
v -0.005224 0.279228 0.080922
v -0.005224 0.529227 0.081511
v -0.005224 0.029229 0.080333
v 0.119776 0.153896 0.221914
v -0.130224 0.028896 0.221619
v -0.005224 0.028896 0.221619
v -0.255224 0.154228 0.080628
v -0.380224 0.154228 0.080628
v -0.255224 0.279228 0.080922
v -0.255224 0.404228 0.081216
v -0.380224 0.279228 0.080922
v 0.369776 0.279228 0.080922
v -0.130224 0.279228 0.080922
v 0.119776 0.529227 0.081511
v -0.380224 0.029229 0.080333
v 0.119776 0.029229 0.080333
v 0.244776 0.154057 0.153550
v 0.119776 0.154057 0.153550
v 0.244776 0.279056 0.153844
v 0.244776 0.404056 0.154138
v 0.119776 0.404056 0.154138
v -0.005224 0.404056 0.154138
v -0.005224 0.279056 0.153844
v -0.005224 0.029057 0.153255
v -0.130224 0.029057 0.153255
v 0.119776 0.279056 0.153844
v -0.005224 0.154057 0.153550
v -0.130224 0.154057 0.153550
v -0.255224 0.154057 0.153550
v -0.255224 0.029057 0.153255
v -0.255224 0.279056 0.153844
v -0.130224 0.279056 0.153844
v 0.119776 0.029057 0.153255
v 0.119776 0.278895 0.222208
v -0.005224 0.153896 0.221914
v -0.130224 0.153896 0.221914
v -0.005224 0.278895 0.222208
v -0.130224 0.278895 0.222208
vt 0.000000 0.000000
vt 0.000000 0.000000
vt 0.000000 0.000000
vt 0.000000 0.000000
vt 0.000000 0.000000
vt 0.000000 0.000000
vt 0.000000 0.000000
vt 0.000000 0.000000
vt 0.000000 0.000000
vt 0.000000 0.000000
vt 0.000000 0.000000
vt 0.000000 0.000000
vt 0.000000 0.000000
vt 0.000000 0.000000
vt 0.000000 0.000000
vt 0.000000 0.000000
vt 0.445134 0.393897
vt 0.445134 0.446665
vt 0.445134 0.446665
vt 0.445134 0.393897
vt 0.000000 0.000000
vt 0.000000 0.000000
vt 0.000000 0.000000
vt 0.000000 0.000000
vt 0.497902 0.235594
vt 0.550670 0.235594
vt 0.550670 0.288361
vt 0.497902 0.288361
vt 0.550670 0.341129
vt 0.497902 0.341129
vt 0.000000 0.000000
vt 0.000000 0.000000
vt 0.000000 0.000000
vt 0.000000 0.000000
vt 0.656205 0.182826
vt 0.708973 0.182826
vt 0.708973 0.235594
vt 0.656205 0.235594
vt 0.497902 0.130058
vt 0.550670 0.130058
vt 0.550670 0.182826
vt 0.497902 0.182826
vt 0.000000 0.000000
vt 0.000000 0.000000
vt 0.000000 0.000000
vt 0.000000 0.000000
vt 0.550670 0.077290
vt 0.603437 0.077290
vt 0.603437 0.130058
vt 0.603437 0.182826
vt 0.445134 0.077290
vt 0.497902 0.077290
vt 0.445134 0.130058
vt 0.392366 0.130058
vt 0.445134 0.182826
vt 0.392366 0.182826
vt 0.339598 0.182826
vt 0.392366 0.235594
vt 0.339598 0.235594
vt 0.000000 0.000000
vt 0.000000 0.000000
vt 0.000000 0.000000
vt 0.000000 0.000000
vt 0.497902 0.446665
vt 0.497902 0.446665
vt 0.000000 0.000000
vt 0.000000 0.000000
vt 0.000000 0.000000
vt 0.000000 0.000000
vt 0.000000 0.000000
vt 0.000000 0.000000
vt 0.000000 0.000000
vt 0.000000 0.000000
vt 0.550670 0.393897
vt 0.497902 0.393897
vt 0.603437 0.235594
vt 0.445134 0.235594
vt 0.550670 0.446665
vt 0.550670 0.446665
vt 0.603437 0.446665
vt 0.603437 0.499433
vt 0.550670 0.499433
vt 0.603437 0.604969
vt 0.550670 0.604969
vt 0.550670 0.604969
vt 0.603437 0.604969
vt 0.656205 0.499433
vt 0.656205 0.552201
vt 0.603437 0.552201
vt 0.656205 0.604969
vt 0.497902 0.604969
vt 0.497902 0.604969
vt 0.603437 0.657736
vt 0.550670 0.657736
vt 0.392366 0.393897
vt 0.392366 0.446665
vt 0.445134 0.446665
vt 0.392366 0.446665
vt 0.445134 0.552201
vt 0.497902 0.552201
vt 0.445134 0.604969
vt 0.497902 0.657736
vt 0.603437 0.552201
vt 0.603437 0.499433
vt 0.392366 0.552201
vt 0.392366 0.499433
vt 0.392366 0.499433
vt 0.392366 0.552201
vt 0.445134 0.552201
vt 0.550670 0.446665
vt 0.497902 0.446665
vt 0.339598 0.446665
vt 0.339598 0.499433
vt 0.339598 0.552201
vt 0.392366 0.604969
vt 0.550670 0.499433
vt 0.550670 0.552201
vt 0.497902 0.552201
vt 0.497902 0.499433
vt 0.550670 0.499433
vt 0.497902 0.499433
vt 0.497902 0.446665
vt 0.445134 0.499433
vt 0.445134 0.499433
vt 0.445134 0.552201
vt 0.445134 0.446665
vt 0.497902 0.552201
vt 0.550670 0.552201
vn 1.0000 0.0000 0.0000
vn 0.0000 -1.0000 -0.0024
vn 0.0000 1.0000 0.0024
vn 0.0000 -0.0024 1.0000
vn -1.0000 0.0000 0.0000
usemtl Material.001
s off
f 2/1/1 31/2/1 62/3/1 60/4/1
f 47/5/2 28/6/2 65/7/2 83/8/2
f 45/9/3 39/10/3 70/11/3 82/12/3
f 16/13/1 53/14/1 80/15/1 54/16/1
f 48/17/1 14/18/1 66/19/1 63/20/1
f 7/21/3 18/22/3 68/23/3 67/24/3
f 38/25/4 46/26/4 44/27/4 3/28/4
f 3/28/4 44/27/4 12/29/4 49/30/4
f 13/31/5 19/32/5 77/33/5 78/34/5
f 24/35/4 5/36/4 37/37/4 33/38/4
f 23/39/4 17/40/4 29/41/4 6/42/4
f 28/6/5 4/43/5 64/44/5 65/7/5
f 51/45/3 2/1/3 60/4/3 59/46/3
f 42/47/4 8/48/4 25/49/4 17/40/4
f 17/40/4 25/49/4 9/50/4 29/41/4
f 21/51/4 10/52/4 23/39/4 52/53/4
f 22/54/4 52/53/4 20/55/4 11/56/4
f 34/57/4 11/56/4 35/58/4 41/59/4
f 6/42/4 29/41/4 46/26/4 38/25/4
f 31/2/3 45/9/3 82/12/3 62/3/3
f 18/22/3 13/31/3 78/34/3 68/23/3
f 4/43/2 48/60/2 63/61/2 64/44/2
f 19/32/3 30/62/3 79/63/3 77/33/3
f 14/18/2 43/64/2 71/65/2 66/19/2
f 50/66/2 27/67/2 57/68/2 84/69/2
f 30/62/5 40/70/5 76/71/5 79/63/5
f 27/67/1 1/72/1 55/73/1 57/68/1
f 49/30/4 12/29/4 26/74/4 15/75/4
f 48/17/4 15/75/4 43/64/4 14/18/4
f 9/50/4 24/35/4 33/38/4 36/76/4
f 10/52/4 42/47/4 17/40/4 23/39/4
f 11/56/4 20/55/4 32/77/4 35/58/4
f 43/64/2 50/78/2 84/79/2 71/65/2
f 53/14/1 51/45/1 59/46/1 80/15/1
f 15/75/4 26/74/4 50/78/4 43/64/4
f 84/79/4 57/80/4 55/81/4 56/82/4
f 60/83/3 61/84/3 89/85/3 88/86/3
f 55/81/4 54/87/4 80/88/4 58/89/4
f 58/89/4 80/88/4 59/90/4 60/83/4
f 61/84/3 67/91/3 90/92/3 89/85/3
f 61/84/4 60/83/4 62/93/4 82/94/4
f 64/95/4 63/20/4 66/19/4 65/96/4
f 65/96/2 66/19/2 93/97/2 98/98/2
f 81/99/4 69/100/4 67/91/4 68/101/4
f 67/91/4 61/84/4 82/94/4 70/102/4
f 55/81/1 58/89/1 87/103/1 85/104/1
f 77/105/5 75/106/5 97/107/5 99/108/5
f 81/99/3 77/105/3 99/108/3 100/109/3
f 71/65/2 84/79/2 101/110/2 92/111/2
f 83/112/4 65/96/4 75/106/4 76/113/4
f 76/113/4 75/106/4 77/105/4 79/114/4
f 77/105/4 81/99/4 68/101/4 78/115/4
f 56/82/2 55/81/2 85/104/2 86/116/2
f 75/106/5 65/96/5 98/98/5 97/107/5
f 39/10/5 7/21/5 67/24/5 70/11/5
f 40/70/5 47/5/5 83/8/5 76/71/5
f 1/72/2 16/13/2 54/16/2 55/73/2
f 86/116/4 85/104/4 87/103/4 94/117/4
f 94/117/4 87/103/4 88/86/4 89/85/4
f 91/118/4 94/117/4 89/85/4 90/92/4
f 92/111/4 101/110/4 86/116/4 95/119/4
f 95/119/2 86/116/2 72/120/2 103/121/2
f 92/111/1 95/119/1 103/121/1 74/122/1
f 98/98/4 93/97/4 96/123/4 97/107/4
f 100/109/5 96/123/5 104/124/5 106/125/5
f 97/107/4 96/123/4 100/109/4 99/108/4
f 67/91/5 69/100/5 91/118/5 90/92/5
f 58/89/1 60/83/1 88/86/1 87/103/1
f 69/100/3 81/99/3 100/109/3 91/118/3
f 84/79/1 56/82/1 86/116/1 101/110/1
f 66/19/2 71/65/2 92/111/2 93/97/2
f 73/126/4 74/122/4 103/121/4 104/124/4
f 104/124/4 103/121/4 105/127/4 106/125/4
f 103/121/4 72/120/4 102/128/4 105/127/4
f 94/117/3 91/118/3 105/127/3 102/128/3
f 93/97/2 92/111/2 74/122/2 73/126/2
f 96/123/5 93/97/5 73/126/5 104/124/5
f 91/118/3 100/109/3 106/125/3 105/127/3
f 86/116/1 94/117/1 102/128/1 72/120/1
o Plane.002
v 0.246930 0.153933 0.003007
v 0.246930 0.403932 0.003595
v -0.005302 -0.346069 0.003117
v -0.257534 -0.096073 0.004992
v 0.499162 -0.596062 -0.000046
v -0.005302 -0.596068 0.002528
v -0.005302 0.403929 0.004882
v 0.246930 -0.846064 0.000652
v 0.246930 -0.596065 0.001241
v -0.005302 -0.846068 0.001939
v -0.257534 -0.596071 0.003815
v 0.120814 -0.221068 0.002767
v -0.257534 0.403926 0.006170
v -0.131418 0.028929 0.004643
v -0.005302 -0.096070 0.003705
v 0.373046 0.153934 0.002363
v 0.120814 -0.721066 0.001590
v -0.131418 0.403928 0.005526
v -0.257534 0.278926 0.005875
v -0.131418 -0.596070 0.003171
v -0.131418 -0.846069 0.002583
v -0.257534 -0.721071 0.003521
v -0.005302 -0.721068 0.002234
v 0.373046 -0.596064 0.000597
v 0.246930 -0.721065 0.000946
v 0.120814 -0.096068 0.003062
v 0.246930 0.028933 0.002712
v -0.257534 0.028927 0.005287
v 0.120814 -0.596067 0.001884
v -0.383650 0.278925 0.006519
v 0.246930 0.528932 0.003890
v -0.131418 -0.471070 0.003466
v 0.373046 -0.471064 0.000892
v -0.383649 -0.596073 0.004459
v -0.257534 -0.471072 0.004109
v 0.246930 -0.471065 0.001535
v 0.499162 -0.471062 0.000248
v -0.005302 -0.471069 0.002822
v -0.005302 0.528929 0.005177
v -0.383650 0.153925 0.006225
v -0.383650 -0.471073 0.004753
v 0.120814 -0.846066 0.001296
v -0.005302 0.028930 0.004000
v 0.120814 -0.346067 0.002473
v 0.120814 0.528930 0.004533
v 0.120814 -0.471067 0.002179
v -0.383650 0.028925 0.005930
v -0.131418 -0.096071 0.004349
v -0.005302 -0.221069 0.003411
v 0.120814 0.028932 0.003356
v 0.373046 0.403934 0.002952
v -0.131418 -0.721069 0.002877
v 0.373046 0.278934 0.002657
v 0.372674 0.154106 -0.070558
v 0.246558 0.154104 -0.069914
v 0.120442 0.154103 -0.069271
v 0.246558 0.029105 -0.070208
v 0.246558 0.279104 -0.069620
v 0.372674 0.404105 -0.069969
v 0.246558 0.404104 -0.069326
v 0.120442 0.404102 -0.068682
v 0.246558 0.529103 -0.069031
v -0.131790 -0.095899 -0.068572
v -0.257906 -0.095901 -0.067929
v -0.257906 0.029099 -0.067634
v -0.131790 0.029100 -0.068278
v -0.005674 0.404101 -0.068038
v -0.131790 0.404099 -0.067395
v -0.005674 0.279101 -0.068333
v -0.005674 0.529100 -0.067744
v -0.005674 0.029102 -0.068921
v 0.119721 0.154436 -0.210555
v -0.132511 0.029433 -0.209562
v -0.006395 0.029434 -0.210206
v -0.257906 0.154098 -0.067340
v -0.384022 0.154097 -0.066696
v -0.257906 0.279098 -0.067046
v -0.257906 0.404098 -0.066751
v -0.384022 0.279096 -0.066402
v 0.372674 0.279106 -0.070263
v -0.131790 0.279100 -0.067689
v 0.120442 0.529102 -0.068388
v -0.384022 0.029097 -0.066991
v 0.120442 0.029103 -0.069565
v 0.246186 0.154276 -0.142835
v 0.120070 0.154275 -0.142191
v 0.246186 0.279276 -0.142541
v 0.246186 0.404275 -0.142246
v 0.120070 0.404274 -0.141603
v -0.006046 0.404272 -0.140959
v -0.006046 0.279273 -0.141254
v -0.006046 0.029273 -0.141842
v -0.132162 0.029272 -0.141199
v 0.120070 0.279274 -0.141897
v -0.006046 0.154273 -0.141548
v -0.132162 0.154272 -0.140904
v -0.258278 0.154270 -0.140261
v -0.258278 0.029270 -0.140555
v -0.258278 0.279270 -0.139966
v -0.132162 0.279271 -0.140610
v 0.120070 0.029275 -0.142486
v 0.119721 0.279435 -0.210260
v -0.006395 0.154434 -0.209911
v -0.132511 0.154433 -0.209268
v -0.006395 0.279434 -0.209617
v -0.132511 0.279432 -0.208973
vt 0.000000 0.000000
vt 0.000000 0.000000
vt 0.000000 0.000000
vt 0.000000 0.000000
vt 0.000000 0.000000
vt 0.000000 0.000000
vt 0.000000 0.000000
vt 0.000000 0.000000
vt 0.000000 0.000000
vt 0.000000 0.000000
vt 0.000000 0.000000
vt 0.000000 0.000000
vt 0.000000 0.000000
vt 0.000000 0.000000
vt 0.000000 0.000000
vt 0.000000 0.000000
vt 0.445134 0.393897
vt 0.445134 0.393897
vt 0.445134 0.446665
vt 0.445134 0.446665
vt 0.000000 0.000000
vt 0.000000 0.000000
vt 0.000000 0.000000
vt 0.000000 0.000000
vt 0.497902 0.235594
vt 0.497902 0.288361
vt 0.550670 0.288361
vt 0.550670 0.235594
vt 0.497902 0.341129
vt 0.550670 0.341129
vt 0.000000 0.000000
vt 0.000000 0.000000
vt 0.000000 0.000000
vt 0.000000 0.000000
vt 0.656205 0.182826
vt 0.656205 0.235594
vt 0.708973 0.235594
vt 0.708973 0.182826
vt 0.497902 0.130058
vt 0.497902 0.182826
vt 0.550670 0.182826
vt 0.550670 0.130058
vt 0.000000 0.000000
vt 0.000000 0.000000
vt 0.000000 0.000000
vt 0.000000 0.000000
vt 0.550670 0.077290
vt 0.603437 0.130058
vt 0.603437 0.077290
vt 0.603437 0.182826
vt 0.445134 0.077290
vt 0.445134 0.130058
vt 0.497902 0.077290
vt 0.392366 0.130058
vt 0.392366 0.182826
vt 0.445134 0.182826
vt 0.339598 0.182826
vt 0.339598 0.235594
vt 0.392366 0.235594
vt 0.000000 0.000000
vt 0.000000 0.000000
vt 0.000000 0.000000
vt 0.000000 0.000000
vt 0.497902 0.446665
vt 0.497902 0.446665
vt 0.000000 0.000000
vt 0.000000 0.000000
vt 0.000000 0.000000
vt 0.000000 0.000000
vt 0.000000 0.000000
vt 0.000000 0.000000
vt 0.000000 0.000000
vt 0.000000 0.000000
vt 0.497902 0.393897
vt 0.550670 0.393897
vt 0.603437 0.235594
vt 0.445134 0.235594
vt 0.550670 0.446665
vt 0.550670 0.446665
vt 0.550670 0.499433
vt 0.603437 0.499433
vt 0.603437 0.446665
vt 0.603437 0.604969
vt 0.603437 0.604969
vt 0.550670 0.604969
vt 0.550670 0.604969
vt 0.603437 0.552201
vt 0.656205 0.552201
vt 0.656205 0.499433
vt 0.656205 0.604969
vt 0.497902 0.604969
vt 0.497902 0.604969
vt 0.550670 0.657736
vt 0.603437 0.657736
vt 0.392366 0.393897
vt 0.392366 0.446665
vt 0.392366 0.446665
vt 0.445134 0.446665
vt 0.445134 0.552201
vt 0.445134 0.604969
vt 0.497902 0.552201
vt 0.497902 0.657736
vt 0.603437 0.499433
vt 0.603437 0.552201
vt 0.392366 0.552201
vt 0.392366 0.552201
vt 0.392366 0.499433
vt 0.392366 0.499433
vt 0.445134 0.552201
vt 0.497902 0.446665
vt 0.550670 0.446665
vt 0.339598 0.446665
vt 0.339598 0.499433
vt 0.339598 0.552201
vt 0.392366 0.604969
vt 0.550670 0.499433
vt 0.550670 0.552201
vt 0.497902 0.552201
vt 0.497902 0.499433
vt 0.497902 0.499433
vt 0.550670 0.499433
vt 0.497902 0.446665
vt 0.445134 0.499433
vt 0.445134 0.552201
vt 0.445134 0.499433
vt 0.445134 0.446665
vt 0.497902 0.552201
vt 0.550670 0.552201
vn 1.0000 0.0000 -0.0051
vn 0.0000 -1.0000 -0.0024
vn -0.0000 1.0000 0.0024
vn -0.0051 0.0024 -1.0000
vn -1.0000 -0.0000 0.0051
usemtl Material.001
s off
f 108/129/6 166/130/6 168/131/6 137/132/6
f 153/133/7 189/134/7 171/135/7 134/136/7
f 151/137/8 188/138/8 176/139/8 145/140/8
f 122/141/6 160/142/6 186/143/6 159/144/6
f 154/145/6 169/146/6 172/147/6 120/148/6
f 113/149/8 173/150/8 174/151/8 124/152/8
f 144/153/9 109/154/9 150/155/9 152/156/9
f 109/154/9 155/157/9 118/158/9 150/155/9
f 119/159/10 184/160/10 183/161/10 125/162/10
f 130/163/9 139/164/9 143/165/9 111/166/9
f 129/167/9 112/168/9 135/169/9 123/170/9
f 134/136/10 171/135/10 170/171/10 110/172/10
f 157/173/8 165/174/8 166/130/8 108/129/8
f 148/175/9 123/170/9 131/176/9 114/177/9
f 123/170/9 135/169/9 115/178/9 131/176/9
f 127/179/9 158/180/9 129/167/9 116/181/9
f 128/182/9 117/183/9 126/184/9 158/180/9
f 140/185/9 147/186/9 141/187/9 117/183/9
f 112/168/9 144/153/9 152/156/9 135/169/9
f 137/132/8 168/131/8 188/138/8 151/137/8
f 124/152/8 174/151/8 184/160/8 119/159/8
f 110/172/7 170/171/7 169/188/7 154/189/7
f 125/162/8 183/161/8 185/190/8 136/191/8
f 120/148/7 172/147/7 177/192/7 149/193/7
f 156/194/7 190/195/7 163/196/7 133/197/7
f 136/191/10 185/190/10 182/198/10 146/199/10
f 133/197/6 163/196/6 161/200/6 107/201/6
f 155/157/9 121/202/9 132/203/9 118/158/9
f 154/145/9 120/148/9 149/193/9 121/202/9
f 115/178/9 142/204/9 139/164/9 130/163/9
f 116/181/9 129/167/9 123/170/9 148/175/9
f 117/183/9 141/187/9 138/205/9 126/184/9
f 149/193/7 177/192/7 190/206/7 156/207/7
f 159/144/6 186/143/6 165/174/6 157/173/6
f 121/202/9 149/193/9 156/207/9 132/203/9
f 190/206/9 162/208/9 161/209/9 163/210/9
f 166/211/8 194/212/8 195/213/8 167/214/8
f 161/209/9 164/215/9 186/216/9 160/217/9
f 164/215/9 166/211/9 165/218/9 186/216/9
f 167/214/8 195/213/8 196/219/8 173/220/8
f 167/214/9 188/221/9 168/222/9 166/211/9
f 170/223/9 171/224/9 172/147/9 169/146/9
f 171/224/7 204/225/7 199/226/7 172/147/7
f 187/227/9 174/228/9 173/220/9 175/229/9
f 173/220/9 176/230/9 188/221/9 167/214/9
f 161/209/6 191/231/6 193/232/6 164/215/6
f 183/233/10 205/234/10 203/235/10 181/236/10
f 187/227/8 206/237/8 205/234/8 183/233/8
f 177/192/7 198/238/7 207/239/7 190/206/7
f 189/240/9 182/241/9 181/236/9 171/224/9
f 182/241/9 185/242/9 183/233/9 181/236/9
f 183/233/9 184/243/9 174/228/9 187/227/9
f 162/208/7 192/244/7 191/231/7 161/209/7
f 181/236/10 203/235/10 204/225/10 171/224/10
f 145/140/10 176/139/10 173/150/10 113/149/10
f 146/199/10 182/198/10 189/134/10 153/133/10
f 107/201/7 161/200/7 160/142/7 122/141/7
f 192/244/9 200/245/9 193/232/9 191/231/9
f 200/245/9 195/213/9 194/212/9 193/232/9
f 197/246/9 196/219/9 195/213/9 200/245/9
f 198/238/9 201/247/9 192/244/9 207/239/9
f 201/247/7 209/248/7 178/249/7 192/244/7
f 198/238/6 180/250/6 209/248/6 201/247/6
f 204/225/9 203/235/9 202/251/9 199/226/9
f 206/237/10 212/252/10 210/253/10 202/251/10
f 203/235/9 205/234/9 206/237/9 202/251/9
f 173/220/10 196/219/10 197/246/10 175/229/10
f 164/215/6 193/232/6 194/212/6 166/211/6
f 175/229/8 197/246/8 206/237/8 187/227/8
f 190/206/6 207/239/6 192/244/6 162/208/6
f 172/147/7 199/226/7 198/238/7 177/192/7
f 179/254/9 210/253/9 209/248/9 180/250/9
f 210/253/9 212/252/9 211/255/9 209/248/9
f 209/248/9 211/255/9 208/256/9 178/249/9
f 200/245/8 208/256/8 211/255/8 197/246/8
f 199/226/7 179/254/7 180/250/7 198/238/7
f 202/251/10 210/253/10 179/254/10 199/226/10
f 197/246/8 211/255/8 212/252/8 206/237/8
f 192/244/6 178/249/6 208/256/6 200/245/6
