# Blender v2.93.5 OBJ File: 'hand.blend'
# www.blender.org
mtllib hand.mtl
o Cube
v 3.273082 1.005233 -1.000000
v 3.273082 -1.005233 -1.000000
v 3.273082 1.005233 1.000000
v 3.273082 -1.005233 1.000000
v -3.273082 1.005233 -1.000000
v -3.273082 -1.005233 -1.000000
v -3.273082 1.005233 1.000000
v -3.273082 -1.005233 1.000000
vt 0.660875 0.495356
vt 0.999950 0.493730
vt 0.999950 0.748796
vt 0.660875 0.750422
vt 0.339125 0.750422
vt 0.665206 1.000609
vt 0.339125 1.002236
vt 0.339125 0.002589
vt 0.660875 0.002589
vt 0.660875 0.246796
vt 0.339125 0.246796
vt 0.002216 0.495356
vt 0.339125 0.495356
vt 0.002216 0.750422
vn 0.0000 1.0000 0.0000
vn 0.0000 0.0000 1.0000
vn -1.0000 0.0000 0.0000
vn 0.0000 -1.0000 0.0000
vn 1.0000 0.0000 0.0000
vn 0.0000 0.0000 -1.0000
usemtl Material
s off
f 1/1/1 5/2/1 7/3/1 3/4/1
f 4/5/2 3/4/2 7/6/2 8/7/2
f 8/8/3 7/9/3 5/10/3 6/11/3
f 6/12/4 2/13/4 4/5/4 8/14/4
f 2/13/5 1/1/5 3/4/5 4/5/5
f 6/11/6 5/10/6 1/1/6 2/13/6
