# Blender v2.93.5 OBJ File: 'ladder.blend'
# www.blender.org
mtllib ladder.mtl
o Plane
v 0.500000 0.482886 -0.263685
v 0.500000 0.732882 -0.267614
v 0.500000 0.232890 -0.259756
v 0.500000 -0.017107 -0.255827
v 0.750000 -0.017107 -0.255827
v 0.000000 0.983856 0.247607
v -0.500000 -0.017107 -0.255827
v -0.250000 -0.017107 -0.255827
v 0.000000 -0.016129 0.263324
v 0.500000 -1.017092 -0.240110
v 0.500000 0.983856 0.247607
v 0.750000 -1.017092 -0.240110
v -0.500000 -1.016114 0.279041
v -0.500000 0.982879 -0.271544
v -0.500000 0.983856 0.247607
v -0.750000 0.982879 -0.271544
v 0.500000 -1.016114 0.279041
v 0.000000 -0.516121 0.271182
v 0.000000 0.483864 0.255466
v -0.500000 -0.016129 0.263324
v 0.500000 -0.016129 0.263324
v 0.500000 0.483864 0.255466
v -0.500000 0.483864 0.255466
v -0.500000 -0.516121 0.271182
v 0.500000 -0.516121 0.271182
v -0.500000 -1.017092 -0.240110
v 0.750000 0.983856 0.247607
v -0.250000 -1.017092 -0.240110
v -0.750000 -1.016114 0.279041
v 0.500000 0.982879 -0.271544
v -0.250000 0.983856 0.247607
v 0.250000 0.982879 -0.271544
v 0.250000 -1.016114 0.279041
v 0.000000 -0.766118 0.275112
v 0.000000 0.233868 0.259395
v -0.750000 -0.016129 0.263324
v 0.250000 -0.016129 0.263324
v 0.000000 -0.017107 -0.255827
v 0.250000 0.983856 0.247607
v 0.250000 -0.017107 -0.255827
v -0.250000 -1.016114 0.279041
v 0.000000 0.982879 -0.271544
v -0.750000 0.983856 0.247607
v -0.250000 0.982879 -0.271544
v 0.750000 -1.016114 0.279041
v 0.000000 -0.266125 0.267253
v 0.000000 0.733860 0.251536
v -0.250000 -0.016129 0.263324
v 0.750000 -0.016129 0.263324
v 0.500000 0.233868 0.259395
v 0.500000 0.733860 0.251536
v 0.250000 0.483864 0.255466
v 0.750000 0.483864 0.255466
v -0.500000 0.233868 0.259395
v -0.500000 0.733860 0.251536
v -0.750000 0.483864 0.255466
v -0.250000 0.483864 0.255466
v -0.500000 -0.766118 0.275112
v -0.500000 -0.266125 0.267253
v -0.750000 -0.516121 0.271182
v -0.250000 -0.516121 0.271182
v 0.500000 -0.766118 0.275112
v 0.500000 -0.266125 0.267253
v 0.250000 -0.516121 0.271182
v 0.750000 -0.516121 0.271182
v 0.750000 -0.266125 0.267253
v 0.250000 -0.266125 0.267253
v 0.250000 -0.766118 0.275112
v -0.250000 -0.266125 0.267253
v -0.750000 -0.266125 0.267253
v -0.750000 -0.766118 0.275112
v -0.250000 0.733860 0.251536
v -0.750000 0.733860 0.251536
v -0.750000 0.233868 0.259395
v 0.750000 0.733860 0.251536
v 0.250000 0.733860 0.251536
v 0.250000 0.233868 0.259395
v 0.750000 0.233868 0.259395
v -0.250000 0.233868 0.259395
v -0.250000 -0.766118 0.275112
v 0.750000 -0.766118 0.275112
v 0.250000 0.482886 -0.263685
v 0.000000 0.482886 -0.263685
v 0.750000 0.482886 -0.263685
v -0.500000 0.232890 -0.259756
v -0.500000 0.732882 -0.267614
v -0.500000 0.482886 -0.263685
v -0.250000 0.482886 -0.263685
v -0.500000 -0.767096 -0.244039
v -0.500000 -0.267103 -0.251898
v -0.500000 -0.517099 -0.247968
v -0.250000 -0.517099 -0.247968
v 0.500000 -0.767096 -0.244039
v 0.500000 -0.267103 -0.251898
v 0.500000 -0.517099 -0.247968
v 0.250000 -0.517099 -0.247968
v 0.000000 -0.517099 -0.247968
v 0.750000 -0.517099 -0.247968
v 0.750000 0.982879 -0.271544
v -0.750000 -1.017092 -0.240110
v 0.250000 -1.017092 -0.240110
v 0.000000 -0.767096 -0.244039
v 0.000000 0.232890 -0.259756
v -0.750000 -0.017107 -0.255827
v 0.000000 -0.267103 -0.251898
v 0.000000 0.732882 -0.267614
v -0.750000 0.482886 -0.263685
v -0.750000 -0.517099 -0.247968
v 0.750000 -0.267103 -0.251898
v 0.250000 -0.267103 -0.251898
v 0.250000 -0.767096 -0.244039
v -0.250000 -0.267103 -0.251898
v -0.750000 -0.267103 -0.251898
v -0.750000 -0.767096 -0.244039
v -0.250000 0.732882 -0.267614
v -0.750000 0.732882 -0.267614
v -0.750000 0.232890 -0.259756
v 0.750000 0.732882 -0.267614
v 0.250000 0.732882 -0.267614
v 0.250000 0.232890 -0.259756
v 0.750000 0.232890 -0.259756
v -0.250000 0.232890 -0.259756
v -0.250000 -0.767096 -0.244039
v 0.750000 -0.767096 -0.244039
vt 0.125000 0.250000
vt 0.250000 0.250000
vt 0.250000 0.375000
vt 0.125000 0.375000
vt 0.125000 0.000000
vt 0.250000 0.000000
vt 0.250000 0.125000
vt 0.125000 0.125000
vt 0.375000 0.000000
vt 0.500000 0.000000
vt 0.500000 0.125000
vt 0.375000 0.125000
vt 0.625000 0.375000
vt 0.625000 0.500000
vt 0.750000 0.500000
vt 0.750000 0.375000
vt 0.625000 0.125000
vt 0.625000 0.250000
vt 0.750000 0.250000
vt 0.750000 0.125000
vt 0.375000 0.250000
vt 0.125000 0.375000
vt 0.125000 0.500000
vt 0.250000 0.500000
vt 0.250000 0.375000
vt 0.125000 0.125000
vt 0.125000 0.250000
vt 0.250000 0.250000
vt 0.250000 0.125000
vt 0.125000 0.750000
vt 0.250000 0.750000
vt 0.250000 0.875000
vt 0.125000 0.875000
vt 0.125000 0.875000
vt 0.125000 1.000000
vt 0.250000 1.000000
vt 0.250000 0.875000
vt 0.125000 0.625000
vt 0.125000 0.750000
vt 0.250000 0.750000
vt 0.250000 0.625000
vt 0.125000 0.500000
vt 0.250000 0.500000
vt 0.250000 0.625000
vt 0.125000 0.625000
vt 0.625000 0.875000
vt 0.625000 1.000000
vt 0.750000 1.000000
vt 0.750000 0.875000
vt 0.625000 0.625000
vt 0.625000 0.750000
vt 0.750000 0.750000
vt 0.750000 0.625000
vt 0.375000 0.500000
vt 0.500000 0.500000
vt 0.500000 0.625000
vt 0.375000 0.625000
vt 0.875000 0.750000
vt 0.875000 0.625000
vt 0.875000 0.500000
vt 0.375000 0.750000
vt 0.500000 0.500000
vt 0.500000 0.625000
vt 0.625000 0.750000
vt 0.750000 0.750000
vt 0.750000 0.875000
vt 0.625000 0.875000
vt 0.500000 0.750000
vt 0.500000 0.875000
vt 0.375000 0.750000
vt 0.375000 0.625000
vt 0.375000 0.500000
vt 0.500000 0.750000
vt 0.500000 0.875000
vt 0.625000 0.500000
vt 0.750000 0.500000
vt 0.750000 0.625000
vt 0.625000 0.625000
vt 0.875000 0.500000
vt 0.875000 0.625000
vt 0.375000 0.250000
vt 0.375000 0.125000
vt 0.250000 0.000000
vt 0.375000 0.000000
vt 0.500000 0.125000
vt 0.500000 0.000000
vt 0.875000 0.750000
vt 0.125000 0.000000
vt 0.750000 1.000000
vt 0.625000 1.000000
vt 0.875000 0.250000
vt 0.875000 0.125000
vt 0.750000 0.000000
vt 0.875000 0.000000
vt 0.250000 1.000000
vt 0.125000 1.000000
vt 0.625000 0.000000
vt 0.500000 0.250000
vt 0.500000 0.375000
vt 0.875000 0.375000
vt 0.625000 0.125000
vt 0.750000 0.125000
vt 0.750000 0.250000
vt 0.625000 0.250000
vt 0.375000 0.375000
vt 0.375000 1.000000
vt 0.375000 0.875000
vt 0.875000 1.000000
vt 0.875000 0.875000
vt 0.625000 0.375000
vt 0.750000 0.375000
vt 0.875000 0.125000
vt 0.875000 0.250000
vt 0.750000 0.000000
vt 0.875000 0.000000
vt 0.625000 0.000000
vt 0.500000 0.250000
vt 0.500000 0.375000
vt 0.875000 0.375000
vt 0.375000 0.375000
vt 0.375000 0.875000
vt 0.375000 1.000000
vt 0.875000 0.875000
vt 0.875000 1.000000
vn 0.0000 -0.0157 -0.9999
vn 0.0000 0.0157 0.9999
vn 1.0000 0.0000 0.0000
vn 0.0000 1.0000 -0.0019
vn -1.0000 -0.0000 0.0000
vn 0.0000 -1.0000 0.0019
usemtl None
s off
f 107/1/1 87/2/1 85/3/1 117/4/1
f 16/5/1 14/6/1 86/7/1 116/8/1
f 44/9/1 42/10/1 106/11/1 115/12/1
f 14/6/1 44/9/1 115/12/1 86/7/1
f 77/13/2 37/14/2 21/15/2 50/16/2
f 76/17/2 52/18/2 22/19/2 51/20/2
f 86/7/1 115/12/1 88/21/1 87/2/1
f 74/22/2 36/23/2 20/24/2 54/25/2
f 73/26/2 56/27/2 23/28/2 55/29/2
f 108/30/1 91/31/1 89/32/1 114/33/1
f 71/34/2 29/35/2 13/36/2 58/37/2
f 70/38/2 60/39/2 24/40/2 59/41/2
f 104/42/1 7/43/1 90/44/1 113/45/1
f 68/46/2 33/47/2 17/48/2 62/49/2
f 67/50/2 64/51/2 25/52/2 63/53/2
f 8/54/1 38/55/1 105/56/1 112/57/1
f 63/53/2 25/52/2 65/58/2 66/59/2
f 21/15/2 63/53/2 66/59/2 49/60/2
f 7/43/1 8/54/1 112/57/1 90/44/1
f 90/44/1 112/57/1 92/61/1 91/31/1
f 9/62/2 46/63/2 67/50/2 37/14/2
f 37/14/2 67/50/2 63/53/2 21/15/2
f 96/64/1 95/65/1 93/66/1 111/67/1
f 18/68/2 34/69/2 68/46/2 64/51/2
f 64/51/2 68/46/2 62/49/2 25/52/2
f 59/41/2 24/40/2 61/70/2 69/71/2
f 20/24/2 59/41/2 69/71/2 48/72/2
f 48/72/2 69/71/2 46/63/2 9/62/2
f 97/73/1 96/64/1 111/67/1 102/74/1
f 40/75/1 4/76/1 94/77/1 110/78/1
f 36/23/2 70/38/2 59/41/2 20/24/2
f 38/55/1 40/75/1 110/78/1 105/56/1
f 4/76/1 5/79/1 109/80/1 94/77/1
f 60/39/2 71/34/2 58/37/2 24/40/2
f 55/29/2 23/28/2 57/81/2 72/82/2
f 15/83/2 55/29/2 72/82/2 31/84/2
f 31/84/2 72/82/2 47/85/2 6/86/2
f 94/77/1 109/80/1 98/87/1 95/65/1
f 110/78/1 94/77/1 95/65/1 96/64/1
f 43/88/2 73/26/2 55/29/2 15/83/2
f 111/67/1 93/66/1 10/89/1 101/90/1
f 113/45/1 90/44/1 91/31/1 108/30/1
f 56/27/2 74/22/2 54/25/2 23/28/2
f 51/20/2 22/19/2 53/91/2 75/92/2
f 11/93/2 51/20/2 75/92/2 27/94/2
f 114/33/1 89/32/1 26/95/1 100/96/1
f 116/8/1 86/7/1 87/2/1 107/1/1
f 6/86/2 47/85/2 76/17/2 39/97/2
f 39/97/2 76/17/2 51/20/2 11/93/2
f 117/4/1 85/3/1 7/43/1 104/42/1
f 19/98/2 35/99/2 77/13/2 52/18/2
f 52/18/2 77/13/2 50/16/2 22/19/2
f 50/16/2 21/15/2 49/60/2 78/100/2
f 22/19/2 50/16/2 78/100/2 53/91/2
f 119/101/1 2/102/1 1/103/1 82/104/1
f 54/25/2 20/24/2 48/72/2 79/105/2
f 23/28/2 54/25/2 79/105/2 57/81/2
f 57/81/2 79/105/2 35/99/2 19/98/2
f 58/37/2 13/36/2 41/106/2 80/107/2
f 24/40/2 58/37/2 80/107/2 61/70/2
f 61/70/2 80/107/2 34/69/2 18/68/2
f 62/49/2 17/48/2 45/108/2 81/109/2
f 25/52/2 62/49/2 81/109/2 65/58/2
f 120/110/1 3/111/1 4/76/1 40/75/1
f 2/102/1 118/112/1 84/113/1 1/103/1
f 30/114/1 99/115/1 118/112/1 2/102/1
f 42/10/1 32/116/1 119/101/1 106/11/1
f 32/116/1 30/114/1 2/102/1 119/101/1
f 83/117/1 82/104/1 120/110/1 103/118/1
f 82/104/1 1/103/1 3/111/1 120/110/1
f 3/111/1 121/119/1 5/79/1 4/76/1
f 1/103/1 84/113/1 121/119/1 3/111/1
f 85/3/1 122/120/1 8/54/1 7/43/1
f 87/2/1 88/21/1 122/120/1 85/3/1
f 88/21/1 83/117/1 103/118/1 122/120/1
f 89/32/1 123/121/1 28/122/1 26/95/1
f 91/31/1 92/61/1 123/121/1 89/32/1
f 92/61/1 97/73/1 102/74/1 123/121/1
f 93/66/1 124/123/1 12/124/1 10/89/1
f 95/65/1 98/87/1 124/123/1 93/66/1
f 79/105/3 48/72/3 8/54/3 122/120/3
f 69/71/3 61/70/3 92/61/3 112/57/3
f 19/98/4 52/18/4 82/104/4 83/117/4
f 52/18/5 76/17/5 119/101/5 82/104/5
f 6/86/4 39/97/4 32/116/4 42/10/4
f 66/59/3 65/58/3 98/87/3 109/80/3
f 39/97/4 11/93/4 30/114/4 32/116/4
f 47/85/6 72/82/6 115/12/6 106/11/6
f 49/60/3 66/59/3 109/80/3 5/79/3
f 56/27/5 73/26/5 116/8/5 107/1/5
f 11/93/4 27/94/4 99/115/4 30/114/4
f 35/99/6 79/105/6 122/120/6 103/118/6
f 46/63/6 69/71/6 112/57/6 105/56/6
f 76/17/6 47/85/6 106/11/6 119/101/6
f 41/106/6 13/36/6 26/95/6 28/122/6
f 73/26/5 43/88/5 16/5/5 116/8/5
f 80/107/3 41/106/3 28/122/3 123/121/3
f 60/39/5 70/38/5 113/45/5 108/30/5
f 13/36/6 29/35/6 100/96/6 26/95/6
f 70/38/5 36/23/5 104/42/5 113/45/5
f 37/14/5 77/13/5 120/110/5 40/75/5
f 64/51/5 67/50/5 110/78/5 96/64/5
f 43/88/4 15/83/4 14/6/4 16/5/4
f 57/81/4 19/98/4 83/117/4 88/21/4
f 36/23/5 74/22/5 117/4/5 104/42/5
f 15/83/4 31/84/4 44/9/4 14/6/4
f 34/69/6 80/107/6 123/121/6 102/74/6
f 31/84/4 6/86/4 42/10/4 44/9/4
f 77/13/6 35/99/6 103/118/6 120/110/6
f 67/50/6 46/63/6 105/56/6 110/78/6
f 45/108/6 17/48/6 10/89/6 12/124/6
f 74/22/5 56/27/5 107/1/5 117/4/5
f 81/109/3 45/108/3 12/124/3 124/123/3
f 29/35/5 71/34/5 114/33/5 100/96/5
f 17/48/6 33/47/6 101/90/6 10/89/6
f 65/58/3 81/109/3 124/123/3 98/87/3
f 71/34/5 60/39/5 108/30/5 114/33/5
f 78/100/3 49/60/3 5/79/3 121/119/3
f 33/47/5 68/46/5 111/67/5 101/90/5
f 61/70/4 18/68/4 97/73/4 92/61/4
f 53/91/3 78/100/3 121/119/3 84/113/3
f 48/72/4 9/62/4 38/55/4 8/54/4
f 75/92/3 53/91/3 84/113/3 118/112/3
f 68/46/6 34/69/6 102/74/6 111/67/6
f 27/94/3 75/92/3 118/112/3 99/115/3
f 72/82/3 57/81/3 88/21/3 115/12/3
f 9/62/4 37/14/4 40/75/4 38/55/4
f 18/68/4 64/51/4 96/64/4 97/73/4
