# Blender v2.93.5 OBJ File: 'person.blend'
# www.blender.org
mtllib person.mtl
o Cube_Cube.001
v -0.331764 -1.135396 0.159832
v -0.331764 -0.355817 0.159832
v -0.331764 -1.135396 -0.149243
v -0.331764 -0.355817 -0.149243
v -0.045736 -1.135396 0.159832
v -0.045736 -0.355817 0.159832
v -0.045736 -1.135396 -0.149243
v -0.045736 -0.355817 -0.149243
vt 0.329570 0.360132
vt 0.329570 0.379418
vt 0.310284 0.379418
vt 0.310284 0.360132
vt 0.290997 0.379418
vt 0.290997 0.360132
vt 0.271710 0.379418
vt 0.271710 0.360132
vt 0.252423 0.379418
vt 0.252423 0.360132
vt 0.290997 0.340845
vt 0.271710 0.340845
vt 0.290997 0.398705
vt 0.271710 0.398705
vn -1.0000 0.0000 0.0000
vn 0.0000 0.0000 -1.0000
vn 1.0000 0.0000 0.0000
vn 0.0000 0.0000 1.0000
vn 0.0000 -1.0000 0.0000
vn 0.0000 1.0000 0.0000
usemtl Material.002
s off
f 1/1/1 2/2/1 4/3/1 3/4/1
f 3/4/2 4/3/2 8/5/2 7/6/2
f 7/6/3 8/5/3 6/7/3 5/8/3
f 5/8/4 6/7/4 2/9/4 1/10/4
f 3/11/5 7/6/5 5/8/5 1/12/5
f 8/5/6 4/13/6 2/14/6 6/7/6
o Cube.001_Cube.002
v 0.029200 -1.135396 0.159832
v 0.029200 -0.355817 0.159832
v 0.029200 -1.135396 -0.149243
v 0.029200 -0.355817 -0.149243
v 0.315228 -1.135396 0.159832
v 0.315228 -0.355817 0.159832
v 0.315228 -1.135396 -0.149243
v 0.315228 -0.355817 -0.149243
vt 0.329570 0.360132
vt 0.329570 0.379418
vt 0.310284 0.379418
vt 0.310284 0.360132
vt 0.290997 0.379418
vt 0.290997 0.360132
vt 0.271710 0.379418
vt 0.271710 0.360132
vt 0.252423 0.379418
vt 0.252423 0.360132
vt 0.290997 0.340845
vt 0.271710 0.340845
vt 0.290997 0.398705
vt 0.271710 0.398705
vn -1.0000 0.0000 0.0000
vn 0.0000 0.0000 -1.0000
vn 1.0000 0.0000 0.0000
vn 0.0000 0.0000 1.0000
vn 0.0000 -1.0000 0.0000
vn 0.0000 1.0000 0.0000
usemtl Material.006
s off
f 9/15/7 10/16/7 12/17/7 11/18/7
f 11/18/8 12/17/8 16/19/8 15/20/8
f 15/20/9 16/19/9 14/21/9 13/22/9
f 13/22/10 14/21/10 10/23/10 9/24/10
f 11/25/11 15/20/11 13/22/11 9/26/11
f 16/19/12 12/27/12 10/28/12 14/21/12
o Cube.002_Cube.003
v -0.353087 -0.355818 0.191424
v -0.353087 0.349020 0.191424
v -0.353087 -0.355818 -0.151491
v -0.353087 0.349020 -0.151491
v 0.358364 -0.355818 0.191424
v 0.358364 0.349020 0.191424
v 0.358364 -0.355818 -0.151491
v 0.358364 0.349020 -0.151491
vt 1.000000 0.375000
vt 1.000000 0.625000
vt 0.750000 0.625000
vt 0.750000 0.375000
vt 0.150000 0.725000
vt 0.150000 0.775000
vt 0.100000 0.775000
vt 0.100000 0.725000
vt 0.500000 0.375000
vt 0.500000 0.625000
vt 0.250000 0.625000
vt 0.250000 0.375000
vt 0.100000 0.525000
vt 0.100000 0.475000
vt 0.150000 0.475000
vt 0.150000 0.525000
vt 0.500000 0.125000
vt 0.250000 0.125000
vt 0.500000 0.875000
vt 0.250000 0.875000
vn -1.0000 0.0000 0.0000
vn 0.0000 0.0000 -1.0000
vn 1.0000 0.0000 0.0000
vn 0.0000 0.0000 1.0000
vn 0.0000 -1.0000 0.0000
vn 0.0000 1.0000 0.0000
usemtl Material.004
s off
f 17/29/13 18/30/13 20/31/13 19/32/13
f 19/33/14 20/34/14 24/35/14 23/36/14
f 23/37/15 24/38/15 22/39/15 21/40/15
f 21/41/16 22/42/16 18/43/16 17/44/16
f 19/45/17 23/37/17 21/40/17 17/46/17
f 24/38/18 20/47/18 18/48/18 22/39/18
o Cube.004_Cube.005
v -0.643041 -0.475807 0.178818
v -0.643041 0.303772 0.178818
v -0.643041 -0.475807 -0.130256
v -0.643041 0.303772 -0.130256
v -0.357013 -0.475807 0.178818
v -0.357013 0.303772 0.178818
v -0.357013 -0.475807 -0.130256
v -0.357013 0.303772 -0.130256
vt 0.499812 0.500214
vt 0.192310 0.500214
vt 0.192310 0.192712
vt 0.499812 0.192712
vt 0.498837 0.500043
vt 0.190069 0.500043
vt 0.190069 0.191275
vt 0.498837 0.191275
vt 0.500000 0.375000
vt 0.500000 0.625000
vt 0.250000 0.625000
vt 0.250000 0.375000
vt 0.498888 0.500094
vt 0.190019 0.500094
vt 0.190019 0.191225
vt 0.498888 0.191225
vt 0.778939 0.476286
vt 0.528939 0.476286
vt 0.528939 0.226286
vt 0.778939 0.226286
vt 0.448754 0.229100
vt 0.448754 0.479100
vt 0.198754 0.479100
vt 0.198754 0.229100
vn -1.0000 0.0000 0.0000
vn 0.0000 0.0000 -1.0000
vn 1.0000 0.0000 0.0000
vn 0.0000 0.0000 1.0000
vn 0.0000 -1.0000 0.0000
vn 0.0000 1.0000 0.0000
usemtl Material.003
s off
f 25/49/19 26/50/19 28/51/19 27/52/19
f 27/53/20 28/54/20 32/55/20 31/56/20
f 31/57/21 32/58/21 30/59/21 29/60/21
f 29/61/22 30/62/22 26/63/22 25/64/22
f 27/65/23 31/66/23 29/67/23 25/68/23
f 32/69/24 28/70/24 26/71/24 30/72/24
o Cube.005_Cube.006
v -0.397206 0.338084 0.231360
v -0.397206 1.106742 0.231360
v -0.397206 0.338084 -0.174850
v -0.397206 1.106742 -0.174850
v 0.409582 0.338084 0.231360
v 0.409582 1.106742 0.231360
v 0.409582 0.338084 -0.174850
v 0.409582 1.106742 -0.174850
vt 0.499584 0.541277
vt 0.499584 0.850496
vt 0.190365 0.850496
vt 0.190365 0.541277
vt 0.807013 0.540656
vt 0.807013 0.849216
vt 0.498453 0.849216
vt 0.498453 0.540656
vt 0.499883 0.538870
vt 0.499883 0.848089
vt 0.190664 0.848089
vt 0.190664 0.538870
vt 0.500953 0.540478
vt 0.500953 0.849697
vt 0.191734 0.849697
vt 0.191734 0.540478
vt 0.125000 0.500000
vt 0.375000 0.500000
vt 0.375000 0.750000
vt 0.125000 0.750000
vt 0.196648 0.744366
vt 0.498690 0.744366
vt 0.498690 0.784975
vt 0.196648 0.784975
vn -1.0000 0.0000 0.0000
vn 0.0000 0.0000 -1.0000
vn 1.0000 0.0000 0.0000
vn 0.0000 0.0000 1.0000
vn 0.0000 -1.0000 0.0000
vn 0.0000 1.0000 0.0000
usemtl Material.001
s off
f 33/73/25 34/74/25 36/75/25 35/76/25
f 35/77/26 36/78/26 40/79/26 39/80/26
f 39/81/27 40/82/27 38/83/27 37/84/27
f 37/85/28 38/86/28 34/87/28 33/88/28
f 35/89/29 39/90/29 37/91/29 33/92/29
f 40/93/30 36/94/30 34/95/30 38/96/30
o Cube.003_Cube.007
v 0.369024 -0.475806 0.173678
v 0.369024 0.303773 0.173678
v 0.369024 -0.475806 -0.135397
v 0.369024 0.303773 -0.135397
v 0.655052 -0.475806 0.173678
v 0.655052 0.303773 0.173678
v 0.655052 -0.475806 -0.135397
v 0.655052 0.303773 -0.135397
vt 0.499812 0.500214
vt 0.192310 0.500214
vt 0.192310 0.192712
vt 0.499812 0.192712
vt 0.498837 0.500043
vt 0.190069 0.500043
vt 0.190069 0.191275
vt 0.498837 0.191275
vt 0.500000 0.375000
vt 0.500000 0.625000
vt 0.250000 0.625000
vt 0.250000 0.375000
vt 0.498888 0.500094
vt 0.190019 0.500094
vt 0.190019 0.191225
vt 0.498888 0.191225
vt 0.778939 0.476286
vt 0.528939 0.476286
vt 0.528939 0.226286
vt 0.778939 0.226286
vt 0.448754 0.229100
vt 0.448754 0.479100
vt 0.198754 0.479100
vt 0.198754 0.229100
vn -1.0000 0.0000 0.0000
vn 0.0000 0.0000 -1.0000
vn 1.0000 0.0000 0.0000
vn 0.0000 0.0000 1.0000
vn 0.0000 -1.0000 0.0000
vn 0.0000 1.0000 0.0000
usemtl Material.003
s off
f 41/97/31 42/98/31 44/99/31 43/100/31
f 43/101/32 44/102/32 48/103/32 47/104/32
f 47/105/33 48/106/33 46/107/33 45/108/33
f 45/109/34 46/110/34 42/111/34 41/112/34
f 43/113/35 47/114/35 45/115/35 41/116/35
f 48/117/36 44/118/36 42/119/36 46/120/36
