# Blender v2.93.5 OBJ File: 'stair.blend'
# www.blender.org
mtllib stair.mtl
o Cube
v -1.000729 0.006422 -0.016137
v 1.000000 -1.000000 -1.000000
v 1.000000 1.000000 1.000000
v 1.000000 -1.000000 1.000000
v 1.006253 0.003530 -0.005091
v -1.000000 -1.000000 -1.000000
v -1.000000 1.000000 1.000000
v -1.000000 -1.000000 1.000000
v -1.000000 -1.000000 0.000000
v 1.000000 1.000000 0.000000
v -1.000000 1.000000 0.000000
v 1.000000 -1.000000 0.000000
v 1.000000 0.000000 -1.000000
v -1.000000 0.000000 1.000000
v 1.000000 0.000000 1.000000
v -1.000000 0.000000 -1.000000
v 1.000000 0.000000 0.000000
v -1.000000 0.000000 0.000000
v 1.006253 0.986345 0.007094
v -1.000729 0.006422 -0.999027
v -0.993747 0.003530 -0.005091
v 0.999271 0.006422 -0.016137
v -0.993747 0.986345 0.007094
v 0.999271 0.006422 -0.999027
vt 0.625000 0.625000
vt 0.875000 0.625000
vt 0.875000 0.750000
vt 0.625000 0.750000
vt 0.500000 0.750000
vt 0.625000 1.000000
vt 0.500000 1.000000
vt 0.125000 0.625000
vt 0.375000 0.625000
vt 0.375000 0.750000
vt 0.125000 0.750000
vt 0.500000 0.625000
vt 0.625000 0.500000
vt 0.875000 0.500000
vt 0.875000 0.750000
vt 0.625000 0.750000
vt 0.125000 0.500000
vt 0.375000 0.500000
vt 0.500000 0.000000
vt 0.625000 0.000000
vt 0.625000 0.125000
vt 0.500000 0.125000
vt 0.375000 0.000000
vt 0.375000 0.125000
vt 0.500000 0.500000
vt 0.375000 0.250000
vt 0.500000 0.250000
vt 0.375000 1.000000
vt 0.625000 0.500000
vt 0.875000 0.500000
vt 0.875000 0.750000
vt 0.625000 0.750000
vn 0.0000 1.0000 0.0000
vn 0.0000 0.0000 1.0000
vn 0.0000 -1.0000 0.0000
vn 1.0000 0.0000 0.0000
vn 0.0000 0.0124 -0.9999
vn -1.0000 0.0000 0.0000
vn 0.0000 0.0000 -1.0000
usemtl Material
s off
f 10/1/1 11/2/1 7/3/1 3/4/1
f 15/5/2 3/4/2 7/6/2 14/7/2
f 9/8/3 12/9/3 4/10/3 8/11/3
f 17/12/4 10/1/4 3/4/4 15/5/4
f 5/13/5 21/14/5 23/15/5 19/16/5
f 6/17/3 2/18/3 12/9/3 9/8/3
f 14/19/6 7/20/6 11/21/6 18/22/6
f 8/23/6 14/19/6 18/22/6 9/24/6
f 2/18/4 13/25/4 17/12/4 12/9/4
f 6/26/7 16/27/7 13/25/7 2/18/7
f 12/9/4 17/12/4 15/5/4 4/10/4
f 9/24/6 18/22/6 16/27/6 6/26/6
f 4/10/2 15/5/2 14/7/2 8/28/2
f 24/29/1 20/30/1 1/31/1 22/32/1
